<?xml version="1.0" encoding="UTF-8" standalone="no"?>
<!-- Created with Inkscape (http://www.inkscape.org/) -->

<svg
   xmlns:dc="http://purl.org/dc/elements/1.1/"
   xmlns:cc="http://creativecommons.org/ns#"
   xmlns:rdf="http://www.w3.org/1999/02/22-rdf-syntax-ns#"
   xmlns:svg="http://www.w3.org/2000/svg"
   xmlns="http://www.w3.org/2000/svg"
   xmlns:sodipodi="http://sodipodi.sourceforge.net/DTD/sodipodi-0.dtd"
   xmlns:inkscape="http://www.inkscape.org/namespaces/inkscape"
   width="200.90086"
   height="53.200489"
   viewBox="0 0 53.155021 14.075962"
   version="1.1"
   id="svg4578"
   inkscape:version="0.92.0 r15299"
   sodipodi:docname="transunion.svg">
  <defs
     id="defs4572" />
  <sodipodi:namedview
     id="base"
     pagecolor="#ffffff"
     bordercolor="#666666"
     borderopacity="1.0"
     inkscape:pageopacity="0.0"
     inkscape:pageshadow="2"
     inkscape:zoom="4.487224"
     inkscape:cx="99.950436"
     inkscape:cy="26.100254"
     inkscape:document-units="mm"
     inkscape:current-layer="layer1"
     showgrid="false"
     fit-margin-top="0"
     fit-margin-left="0"
     fit-margin-right="0"
     fit-margin-bottom="0"
     units="px"
     inkscape:window-width="1280"
     inkscape:window-height="744"
     inkscape:window-x="-4"
     inkscape:window-y="-4"
     inkscape:window-maximized="1" />
  <metadata
     id="metadata4575">
    <rdf:RDF>
      <cc:Work
         rdf:about="">
        <dc:format>image/svg+xml</dc:format>
        <dc:type
           rdf:resource="http://purl.org/dc/dcmitype/StillImage" />
        <dc:title></dc:title>
      </cc:Work>
    </rdf:RDF>
  </metadata>
  <g
     inkscape:label="Layer 1"
     inkscape:groupmode="layer"
     id="layer1"
     transform="translate(-97.53097,-206.67497)">
    <g
       transform="translate(-656.75883,-256.46644)"
       id="g4547">
      <path
         id="path4449"
         d="m 762.46542,472.74583 c -0.13229,-0.10584 -0.29104,-0.18521 -0.47625,-0.23813 -0.18521,-0.0529 -0.37042,-0.0794 -0.52917,-0.0794 -0.13229,0 -0.26458,0.0265 -0.39687,0.0529 -0.13229,0.0265 -0.26459,0.0794 -0.37042,0.1323 -0.10583,0.0529 -0.21167,0.13229 -0.3175,0.23812 -0.10583,0.10583 -0.15875,0.21167 -0.21167,0.3175 0,-0.18521 -0.0529,-0.3175 -0.15875,-0.42333 -0.0794,-0.10584 -0.21166,-0.18521 -0.34395,-0.23813 -0.1323,-0.0529 -0.29105,-0.0794 -0.4498,-0.0794 -0.15875,0 -0.3175,0.0265 -0.5027,0.0529 v 0.68792 c 0.10583,0 0.21166,0 0.26458,0.0265 0.0794,0.0265 0.10583,0.0529 0.13229,0.10583 0.0265,0.0529 0.0529,0.10584 0.0529,0.18521 0,0.0794 0,0.15875 0,0.26458 v 3.20146 h 1.00541 v -2.56646 c 0,-0.1852 0.0265,-0.34395 0.10584,-0.47625 0.0529,-0.13229 0.13229,-0.23812 0.23812,-0.3175 0.10584,-0.0794 0.23813,-0.15875 0.37042,-0.1852 0.13229,-0.0265 0.29104,-0.0794 0.42333,-0.0794 0.26459,0 0.50271,0.0529 0.71438,0.15875 v 0 z"
         inkscape:connector-curvature="0"
         style="fill:#00a6ca;stroke-width:0.26458332" />
      <path
         id="path4451"
         d="m 766.88396,476.26479 c -0.0794,-0.0265 -0.10583,-0.0794 -0.13229,-0.1323 -0.0265,-0.0529 -0.0529,-0.13229 -0.0529,-0.21166 0,-0.0794 0,-0.15875 0,-0.26459 v -2.80458 c -0.29104,-0.13229 -0.58208,-0.23812 -0.89958,-0.29104 -0.29104,-0.0794 -0.60854,-0.10583 -0.92604,-0.10583 -0.37042,0 -0.68792,0.0529 -1.00542,0.15875 -0.29104,0.10583 -0.55562,0.26458 -0.79375,0.47625 -0.23812,0.21166 -0.39687,0.44979 -0.52917,0.76729 -0.13229,0.29104 -0.21166,0.635 -0.21166,1.00541 0,0.3175 0.0265,0.60855 0.13229,0.87313 0.0794,0.26458 0.21167,0.50271 0.37042,0.71437 0.15875,0.21167 0.37041,0.37042 0.635,0.47625 0.26458,0.10584 0.55562,0.15875 0.87312,0.15875 0.3175,0 0.635,-0.0794 0.92604,-0.26458 0.29104,-0.15875 0.50271,-0.39687 0.60854,-0.71437 0,0.23812 0.0265,0.42333 0.10584,0.55562 0.0794,0.13229 0.15875,0.23813 0.29104,0.29104 0.13229,0.0794 0.26458,0.10584 0.42333,0.10584 0.15875,0 0.3175,0 0.47625,-0.0529 v -0.74083 c -0.13229,0.0265 -0.23812,0.0265 -0.29104,0 z m -1.16417,-1.53459 c 0,0.42334 -0.10583,0.74084 -0.3175,1.00542 -0.1852,0.26458 -0.47625,0.39687 -0.84666,0.39687 -0.42334,0 -0.71438,-0.13229 -0.92604,-0.37041 -0.21167,-0.23813 -0.29105,-0.55563 -0.29105,-0.97896 0,-0.23813 0.0529,-0.44979 0.1323,-0.66146 0.0794,-0.18521 0.15875,-0.37042 0.29104,-0.50271 0.13229,-0.13229 0.26458,-0.23812 0.44979,-0.3175 0.15875,-0.0794 0.37042,-0.10583 0.58208,-0.10583 0.13229,0 0.29104,0 0.44979,0.0265 0.15875,0.0265 0.3175,0.0794 0.47625,0.13229 z"
         inkscape:connector-curvature="0"
         style="fill:#00a6ca;stroke-width:0.26458332" />
      <path
         id="path4453"
         d="m 771.67292,472.98395 c -0.13229,-0.15875 -0.3175,-0.29104 -0.55563,-0.39687 -0.21166,-0.10584 -0.47625,-0.15875 -0.79375,-0.15875 -0.15875,0 -0.29104,0 -0.44979,0.0265 -0.15875,0.0265 -0.29104,0.0794 -0.42333,0.13229 -0.13229,0.0529 -0.26458,0.13229 -0.37042,0.23812 -0.10583,0.10584 -0.21166,0.21167 -0.26458,0.37042 0,-0.21167 -0.0529,-0.37042 -0.13229,-0.47625 -0.0794,-0.10583 -0.18521,-0.18521 -0.3175,-0.23813 -0.13229,-0.0265 -0.29104,-0.0529 -0.44979,-0.0529 -0.15875,0 -0.34396,0.0265 -0.50271,0.0529 v 0.68792 c 0.10583,0 0.21166,0 0.26458,0.0265 0.0794,0.0265 0.10583,0.0529 0.13229,0.10583 0.0265,0.0529 0.0529,0.10584 0.0529,0.18521 0,0.0794 0,0.18521 0,0.3175 v 3.14854 h 1.00542 v -2.51354 c 0,-0.18521 0.0264,-0.34396 0.0794,-0.47625 0.0529,-0.15875 0.13229,-0.26458 0.23813,-0.37042 0.10583,-0.10583 0.21166,-0.1852 0.34395,-0.23812 0.1323,-0.0529 0.29105,-0.0794 0.4498,-0.0794 0.29104,0 0.55562,0.10584 0.74083,0.29105 0.21167,0.1852 0.29104,0.47625 0.29104,0.8202 v 2.59292 h 1.00542 v -2.59292 c 0,-0.26458 -0.0265,-0.52916 -0.10584,-0.76729 0.0265,-0.26458 -0.0794,-0.44979 -0.23812,-0.635 z"
         inkscape:connector-curvature="0"
         style="fill:#00a6ca;stroke-width:0.26458332" />
      <path
         id="path4455"
         d="m 776.17084,474.65083 c -0.15875,-0.10584 -0.37042,-0.15875 -0.58209,-0.21167 -0.21166,-0.0529 -0.44979,-0.0794 -0.68791,-0.10583 -0.34396,-0.0529 -0.60855,-0.10584 -0.79375,-0.15875 -0.18521,-0.0794 -0.26459,-0.18521 -0.26459,-0.37042 0,-0.10583 0.0265,-0.18521 0.0794,-0.26458 0.0529,-0.0794 0.10583,-0.13229 0.21166,-0.18521 0.0794,-0.0529 0.18521,-0.10583 0.29105,-0.13229 0.10583,-0.0265 0.23812,-0.0529 0.34395,-0.0529 0.10584,0 0.23813,0 0.34396,0.0265 0.13229,0.0265 0.23813,0.0529 0.3175,0.10583 0.10584,0.0529 0.15875,0.10584 0.23813,0.18521 0.0529,0.0794 0.10583,0.15875 0.10583,0.26458 h 0.87313 c 0,-0.21166 -0.0265,-0.42333 -0.1323,-0.58208 -0.10583,-0.15875 -0.23812,-0.29104 -0.39687,-0.42333 -0.18521,-0.10584 -0.37042,-0.21167 -0.60854,-0.26459 -0.23813,-0.0529 -0.47625,-0.0794 -0.74084,-0.0794 -0.23812,0 -0.47625,0.0265 -0.71437,0.0794 -0.23813,0.0529 -0.42333,0.1323 -0.60854,0.26459 -0.18521,0.10583 -0.3175,0.26458 -0.42334,0.42333 -0.10583,0.15875 -0.15875,0.37042 -0.15875,0.60854 0,0.26459 0.0794,0.44979 0.18521,0.60854 0.13229,0.15875 0.26459,0.26459 0.44979,0.34396 0.18521,0.0794 0.39688,0.13229 0.635,0.18521 0.23813,0.0265 0.4498,0.0794 0.68792,0.10583 0.29104,0.0265 0.52917,0.10584 0.71438,0.18521 0.1852,0.0794 0.26458,0.21167 0.26458,0.42334 0,0.13229 -0.0265,0.23812 -0.10583,0.34395 -0.0794,0.0794 -0.15875,0.15875 -0.23813,0.21167 -0.10583,0.0529 -0.21167,0.0794 -0.34396,0.10583 -0.13229,0.0265 -0.23812,0.0265 -0.37041,0.0265 -0.1323,0 -0.23813,-0.0265 -0.37042,-0.0265 -0.10583,-0.0265 -0.21167,-0.0794 -0.3175,-0.13229 -0.10583,-0.0529 -0.15875,-0.13229 -0.23813,-0.21166 -0.0529,-0.0794 -0.10583,-0.18521 -0.10583,-0.29105 h -0.97896 c 0.0265,0.26459 0.0794,0.50271 0.21167,0.68792 0.13229,0.18521 0.26458,0.3175 0.47625,0.42333 0.18521,0.10584 0.39687,0.18521 0.635,0.23813 0.23812,0.0529 0.47625,0.0794 0.71437,0.0794 0.23813,0 0.47625,-0.0265 0.71438,-0.0794 0.23812,-0.0529 0.44979,-0.13229 0.60854,-0.26458 0.15875,-0.1323 0.3175,-0.26459 0.42333,-0.42334 0.10584,-0.18521 0.15875,-0.39687 0.15875,-0.635 0,-0.26458 -0.0529,-0.47625 -0.15875,-0.635 -0.0529,-0.18521 -0.1852,-0.29104 -0.34395,-0.39687 z"
         inkscape:connector-curvature="0"
         style="fill:#00a6ca;stroke-width:0.26458332" />
      <path
         id="path4457"
         d="m 787.38917,472.98395 c -0.13229,-0.15875 -0.3175,-0.29104 -0.55563,-0.39687 -0.21166,-0.10584 -0.47625,-0.15875 -0.79375,-0.15875 -0.15875,0 -0.29104,0 -0.44979,0.0265 -0.15875,0.0265 -0.29104,0.0794 -0.42333,0.13229 -0.13229,0.0529 -0.26458,0.13229 -0.37042,0.23812 -0.10583,0.10584 -0.21166,0.21167 -0.26458,0.37042 0,-0.21167 -0.0529,-0.37042 -0.13229,-0.47625 -0.0794,-0.10583 -0.18521,-0.18521 -0.3175,-0.23813 -0.13229,-0.0265 -0.29104,-0.0529 -0.44979,-0.0529 -0.15875,0 -0.34396,0.0265 -0.47625,0.0529 v 0.68792 c 0.10583,0 0.21166,0 0.26458,0.0265 0.0794,0.0265 0.10583,0.0529 0.13229,0.10583 0.0265,0.0529 0.0529,0.10584 0.0529,0.18521 0,0.0794 0,0.18521 0,0.3175 v 3.14854 h 1.00541 v -2.51354 c 0,-0.18521 0.0265,-0.34396 0.0794,-0.47625 0.0529,-0.15875 0.13229,-0.26458 0.23812,-0.37042 0.10584,-0.10583 0.21167,-0.1852 0.34396,-0.23812 0.13229,-0.0529 0.29104,-0.0794 0.44979,-0.0794 0.29105,0 0.55563,0.10584 0.74084,0.29105 0.21166,0.1852 0.29104,0.47625 0.29104,0.8202 v 2.59292 h 1.00542 v -2.59292 c 0,-0.26458 -0.0265,-0.52916 -0.10584,-0.76729 0,-0.26458 -0.10583,-0.44979 -0.26458,-0.635 z"
         inkscape:connector-curvature="0"
         style="fill:#00a6ca;stroke-width:0.26458332" />
      <path
         id="path4459"
         d="m 789.16188,470.57624 c -0.15875,0 -0.29104,0.0529 -0.42334,0.15875 -0.13229,0.10584 -0.1852,0.23813 -0.1852,0.4498 0,0.21166 0.0794,0.34395 0.1852,0.44979 0.1323,0.10583 0.26459,0.15875 0.42334,0.13229 0.15875,0 0.29104,-0.0529 0.39687,-0.15875 0.13229,-0.10583 0.18521,-0.23813 0.18521,-0.44979 0,-0.21167 -0.0529,-0.34396 -0.18521,-0.44979 -0.10583,-0.10584 -0.23812,-0.1323 -0.39687,-0.1323 z"
         inkscape:connector-curvature="0"
         style="fill:#00a6ca;stroke-width:0.26458332" />
      <rect
         id="rect4461"
         height="4.4449997"
         width="1.0054166"
         y="472.53415"
         x="788.65918"
         style="fill:#00a6ca;stroke-width:0.26458332" />
      <path
         id="path4463"
         d="m 794.34771,473.01041 c -0.21167,-0.18521 -0.47625,-0.3175 -0.76729,-0.42333 -0.29104,-0.10584 -0.58208,-0.13229 -0.89958,-0.13229 -0.29105,0 -0.58209,0.0529 -0.84667,0.13229 -0.26458,0.10583 -0.52917,0.23812 -0.74083,0.42333 -0.21167,0.18521 -0.39688,0.42333 -0.52917,0.71438 -0.13229,0.29104 -0.21167,0.60854 -0.21167,1.00541 0,0.39688 0.0794,0.74084 0.21167,1.00542 0.13229,0.29104 0.3175,0.52917 0.52917,0.74083 0.21166,0.18521 0.47625,0.34396 0.74083,0.42334 0.29104,0.10583 0.55562,0.13229 0.87312,0.13229 0.29105,0 0.58209,-0.0529 0.87313,-0.13229 0.29104,-0.0794 0.52917,-0.23813 0.74083,-0.42334 0.21167,-0.18521 0.39688,-0.42333 0.52917,-0.74083 0.13229,-0.29104 0.21167,-0.635 0.21167,-1.00542 0,-0.39687 -0.0794,-0.71437 -0.21167,-1.00541 -0.10583,-0.29105 -0.29104,-0.52917 -0.50271,-0.71438 z m -0.39687,2.35479 c -0.0794,0.18521 -0.18521,0.3175 -0.29105,0.44979 -0.10583,0.1323 -0.26458,0.21167 -0.42333,0.26459 -0.15875,0.0529 -0.3175,0.10583 -0.47625,0.10583 -0.15875,0 -0.34396,-0.0265 -0.50271,-0.0794 -0.15875,-0.0529 -0.3175,-0.15875 -0.42333,-0.26459 -0.13229,-0.13229 -0.23813,-0.26458 -0.3175,-0.44979 -0.0794,-0.18521 -0.10583,-0.39687 -0.10583,-0.635 0,-0.23812 0.0264,-0.42333 0.10583,-0.60854 0.0794,-0.18521 0.15875,-0.3175 0.29104,-0.42333 0.13229,-0.10584 0.26458,-0.21167 0.42333,-0.26459 0.15875,-0.0529 0.3175,-0.0794 0.47625,-0.10583 0.15875,0 0.34396,0.0265 0.50271,0.0794 0.15875,0.0529 0.3175,0.1323 0.44979,0.26459 0.1323,0.10583 0.23813,0.26458 0.3175,0.44979 0.0794,0.18521 0.1323,0.39687 0.1323,0.635 -0.0265,0.18521 -0.0794,0.39687 -0.15875,0.58208 z"
         inkscape:connector-curvature="0"
         style="fill:#00a6ca;stroke-width:0.26458332" />
      <path
         id="path4465"
         d="m 754.42209,471.47583 v -0.9525 h 4.78895 v 0.9525 h -1.87854 v 5.50333 h -1.05833 v -5.50333 z"
         inkscape:connector-curvature="0"
         style="fill:#00a6ca;stroke-width:0.26458332" />
      <path
         id="path4467"
         d="m 777.49375,474.80958 v -4.28625 h 1.05834 v 4.25979 c 0,0.84667 0.635,1.32292 1.4552,1.32292 0.82021,0 1.42875,-0.47625 1.42875,-1.32292 v -4.25979 h 1.05834 v 4.28625 c 0,1.42875 -1.13771,2.24896 -2.48709,2.24896 -1.37583,0 -2.51354,-0.82021 -2.51354,-2.24896 z"
         inkscape:connector-curvature="0"
         style="fill:#00a6ca;stroke-width:0.26458332" />
      <path
         id="path4469"
         d="m 800.06271,475.92083 v -0.71438 0 -0.87312 c 0,-0.26459 -0.0265,-0.52917 -0.10583,-0.76729 -0.0794,-0.23813 -0.18521,-0.42334 -0.3175,-0.60855 -0.13229,-0.15875 -0.3175,-0.29104 -0.55563,-0.39687 -0.21166,-0.10583 -0.47625,-0.15875 -0.79375,-0.15875 -0.15875,0 -0.29104,0 -0.44979,0.0265 -0.15875,0.0265 -0.29104,0.0794 -0.42333,0.13229 -0.13229,0.0529 -0.26459,0.13229 -0.37042,0.23812 -0.10583,0.10584 -0.21167,0.21167 -0.26458,0.37042 0,-0.21167 -0.0529,-0.37042 -0.13229,-0.47625 -0.0794,-0.10583 -0.18521,-0.18521 -0.3175,-0.23812 -0.1323,-0.0265 -0.29105,-0.0529 -0.4498,-0.0529 -0.15875,0 -0.34395,0.0265 -0.47625,0.0529 v 0.68791 c 0.10584,0 0.21167,0 0.26459,0.0265 0.0794,0.0265 0.10583,0.0529 0.13229,0.10583 0.0265,0.0529 0.0529,0.10584 0.0529,0.18521 0,0.0794 0,0.18521 0,0.3175 v 3.14854 h 1.00541 v -2.51354 c 0,-0.18521 0.0265,-0.34396 0.0794,-0.47625 0.0529,-0.15875 0.13229,-0.26458 0.23812,-0.37041 0.10584,-0.10584 0.21167,-0.18521 0.34396,-0.23813 0.13229,-0.0529 0.29104,-0.0794 0.44979,-0.0794 0.29104,0 0.55563,0.10583 0.74084,0.29104 0.21166,0.18521 0.29104,0.47625 0.29104,0.82021 v 1.50812 0 0.10583 c 0,1.0848 0.66146,1.19063 1.53458,1.03188 v -0.635 c -0.39687,0.0265 -0.47625,-0.10583 -0.47625,-0.44979 z"
         inkscape:connector-curvature="0"
         style="fill:#00a6ca;stroke-width:0.26458332" />
      <path
         id="path4471"
         d="m 802.68209,463.27374 c -1.7198,0 -3.22792,0.92605 -4.02167,2.32834 -0.29104,0.55562 -0.34396,1.03187 -0.10583,1.42875 0.26458,0.47625 0.87312,0.52916 1.19062,0.52916 h 0.58208 l -0.21166,0.66146 c -0.13229,0.39688 -0.0794,0.84667 0.13229,1.13771 0.21167,0.29104 0.52917,0.44979 0.92604,0.44979 0.26458,0 0.55563,-0.0529 0.82021,-0.15875 -0.0794,-0.10583 -0.13229,-0.21166 -0.18521,-0.34396 -0.0265,-0.10583 -0.0794,-0.21166 -0.0794,-0.34395 -0.15875,0.0794 -0.34396,0.10583 -0.52917,0.10583 -0.10583,0 -0.26458,-0.0265 -0.34396,-0.15875 -0.0794,-0.10583 -0.10583,-0.26458 -0.0529,-0.44979 l 0.29105,-0.89959 h 0.92604 l 0.23812,-0.76729 h -0.89958 l 0.39687,-1.24354 h -0.79375 l -0.39687,1.24354 h -0.84667 c -0.26458,0 -0.42333,-0.0794 -0.50271,-0.21166 -0.0794,-0.15875 0,-0.47625 0.21167,-0.84667 v -0.0265 c 0.71438,-1.03187 1.87854,-1.71979 3.22792,-1.71979 2.14312,0 3.88937,1.74625 3.88937,3.88937 0,2.14313 -1.74625,3.88938 -3.88937,3.88938 -1.905,0 -3.4925,-1.37583 -3.83646,-3.175 l -0.74083,0.15875 c 0.42333,2.14312 2.30187,3.78354 4.57729,3.78354 2.56646,0 4.65666,-2.09021 4.65666,-4.65667 0.0265,-2.51354 -2.06375,-4.60375 -4.6302,-4.60375 z"
         inkscape:connector-curvature="0"
         style="fill:#00a6ca;stroke-width:0.26458332" />
      <path
         id="path4475"
         d="m 805.64542,469.20041 c -0.18521,0 -0.42333,-0.0265 -0.58208,-0.13229 -0.0529,-0.0529 -0.1323,-0.10583 -0.15875,-0.23813 v 0 c 0,-0.0529 0,-0.13229 0.0265,-0.21166 l 0.58209,-1.77271 v 0 h -0.79375 v 0 l -0.50271,1.53458 c 0,0 0,0 0,0 -0.13229,0.39688 -0.55563,0.71438 -0.92604,0.71438 -0.10584,0 -0.23813,-0.0265 -0.29104,-0.13229 -0.0529,-0.0794 -0.10584,-0.18521 -0.0265,-0.37042 l 0.58208,-1.77271 h -0.79375 l -0.50271,1.53458 c -0.13229,0.37042 -0.0794,0.7673 0.13229,1.05834 0.21167,0.26458 0.50271,0.42333 0.89959,0.42333 0.37041,0 0.76729,-0.15875 1.08479,-0.42333 0.10583,0.15875 0.23812,0.26458 0.42333,0.34396 0.26459,0.0794 0.42334,0.0794 0.60854,0.0794 0.0794,0 0.18521,-0.0265 0.21167,-0.0265 0.0265,-0.0265 0.0265,-0.0529 0.0529,-0.0794 0.0265,-0.0529 0.0529,-0.10584 0.0794,-0.15875 0.0265,-0.0529 0.0529,-0.10584 0.0794,-0.15875 0.0265,-0.0529 0.0529,-0.10584 0.0794,-0.15875 0.0265,-0.0265 0.0265,-0.0794 0.0529,-0.10584 -0.0794,0.0529 -0.18521,0.0529 -0.3175,0.0529 z"
         inkscape:connector-curvature="0"
         style="fill:#00a6ca;stroke-width:0.26458332" />
      <path
         id="path4481"
         d="m 801.09459,476.44999 c 0,-0.79375 1.19062,-0.79375 1.19062,0 0,0.79375 -1.19062,0.79375 -1.19062,0 z m 1.08479,0 c 0,-0.68791 -0.97896,-0.68791 -0.97896,0 0,0.68792 0.97896,0.68792 0.97896,0 z m -0.23813,0.26459 v 0 l -0.10583,0.0265 -0.15875,-0.21167 h -0.13229 v 0.21167 h -0.0794 v -0.58209 h 0.23813 c 0.10583,0 0.21166,0.0794 0.21166,0.18521 0,0.0794 -0.0529,0.15875 -0.13229,0.15875 z m -0.37041,-0.26459 h 0.13229 c 0.0794,0 0.13229,-0.0529 0.13229,-0.10583 0,-0.0794 -0.0529,-0.10583 -0.13229,-0.10583 h -0.13229 z"
         inkscape:connector-curvature="0"
         style="fill:#00a6ca;stroke-width:0.26458332" />
    </g>
  </g>
</svg>
