<?xml version="1.0" encoding="UTF-8"?>
<svg xmlns="http://www.w3.org/2000/svg" xmlns:xlink="http://www.w3.org/1999/xlink" width="71pt" height="21.8pt" viewBox="0 0 71 21.8" version="1.1">
<defs>
<clipPath id="clip1">
  <path d="M 0 7 L 14 7 L 14 21.800781 L 0 21.800781 Z M 0 7 "/>
</clipPath>
<clipPath id="clip2">
  <path d="M 31 4 L 41 4 L 41 21.800781 L 31 21.800781 Z M 31 4 "/>
</clipPath>
<clipPath id="clip3">
  <path d="M 51 0 L 71 0 L 71 21.800781 L 51 21.800781 Z M 51 0 "/>
</clipPath>
</defs>
<g id="surface1">
<g clip-path="url(#clip1)" clip-rule="nonzero">
<path style=" stroke:none;fill-rule:evenodd;fill:rgb(0%,13.719177%,26.268005%);fill-opacity:1;" d="M 13.414063 8.082031 L 10.363281 8.082031 L 10.363281 9.613281 C 9.050781 8.34375 7.566406 7.710938 5.910156 7.710938 C 4.21875 7.710938 2.824219 8.378906 1.726563 9.71875 C 0.628906 11.0625 0.078125 12.722656 0.078125 14.707031 C 0.078125 15.992188 0.320313 17.167969 0.808594 18.226563 C 1.292969 19.289063 1.988281 20.128906 2.886719 20.757813 C 3.785156 21.382813 4.792969 21.703125 5.910156 21.703125 C 7.566406 21.703125 9.050781 21.0625 10.363281 19.792969 L 10.363281 21.328125 L 13.414063 21.328125 Z M 4.363281 17.757813 C 3.796875 16.972656 3.515625 15.917969 3.515625 14.59375 C 3.515625 13.265625 3.796875 12.210938 4.363281 11.425781 C 5.320313 10.101563 7.136719 9.976563 8.492188 10.636719 C 10.875 11.792969 11.03125 17.539063 8.476563 18.566406 C 6.960938 19.175781 5.523438 19.363281 4.363281 17.757813 Z M 4.363281 17.757813 "/>
</g>
<g clip-path="url(#clip2)" clip-rule="nonzero">
<path style=" stroke:none;fill-rule:evenodd;fill:rgb(0%,13.719177%,26.268005%);fill-opacity:1;" d="M 40.402344 18.800781 C 39.371094 19.171875 37.105469 18.707031 37.070313 16.957031 L 36.941406 10.53125 L 40.425781 10.4375 L 40.425781 8.082031 L 37.003906 8.082031 L 37.042969 4.78125 L 33.851563 4.78125 L 33.851563 7.523438 L 35.246094 8.050781 L 33.851563 8.082031 L 33.71875 8.082031 L 31.3125 8.222656 L 31.3125 10.4375 L 33.851563 10.4375 L 33.851563 17.617188 C 33.851563 19 34.476563 19.859375 35.21875 20.53125 C 35.960938 21.203125 36.902344 21.539063 38.042969 21.539063 C 39.183594 21.539063 39.53125 21.675781 40.566406 21.078125 Z M 40.402344 18.800781 "/>
</g>
<g clip-path="url(#clip3)" clip-rule="nonzero">
<path style=" stroke:none;fill-rule:evenodd;fill:rgb(100%,78.514099%,20.384216%);fill-opacity:1;" d="M 51.019531 10.652344 L 55.996094 21.203125 L 62.5625 21.203125 L 71.019531 -0.09375 L 65.25 -0.09375 L 57.984375 18.8125 L 58.480469 15.230469 L 56.492188 10.539063 Z M 51.019531 10.652344 "/>
</g>
</g>
</svg>
